<?xml version="1.0" encoding="UTF-8" standalone="no"?><!DOCTYPE svg PUBLIC "-//W3C//DTD SVG 1.1//EN" "http://www.w3.org/Graphics/SVG/1.1/DTD/svg11.dtd"><svg width="100%" height="100%" viewBox="0 0 2084 2084" version="1.1" xmlns="http://www.w3.org/2000/svg" xmlns:xlink="http://www.w3.org/1999/xlink" xml:space="preserve" xmlns:serif="http://www.serif.com/" style="fill-rule:evenodd;clip-rule:evenodd;stroke-linejoin:round;stroke-miterlimit:2;"><g><path d="M2080.64,1819.89l-2080.64,5.377l0,-1825.27l2083.33,0l-2.688,1819.89Z" style="fill:#fafdfe;fill-rule:nonzero;"/><path d="M1940.34,1269.1l-65.695,461.288l-1670.48,-0l-49.337,-351.9c-5.488,-39.425 16.312,-77.634 53.096,-92.929l148.258,-61.526l0,-147.445c0,-43.446 31.808,-80.28 74.796,-86.53l35.054,-5.133l58.887,-199.116c10.976,-37.196 45.121,-62.646 83.838,-62.646l602.333,-0c22.913,-0 43.896,8.837 59.546,23.371c15.65,14.583 25.967,34.854 27.642,57.716l286.812,30.284c42.58,4.52 75.605,39.12 78.146,81.854l11.583,198.966l202.675,57.259c42.171,11.887 68.996,53.145 62.85,96.487Z" style="fill:#dae9f1;fill-rule:nonzero;"/><path d="M304.308,1364.24l52.146,366.154l1325.96,-0l39.162,-279.321c4.359,-31.3 -12.946,-61.625 -42.146,-73.763l-117.683,-48.841l0,-117.038c0,-34.479 -25.242,-63.721 -59.363,-68.679l-27.829,-4.075l-46.741,-158.054c-8.713,-29.521 -35.813,-49.725 -66.546,-49.725l-478.109,-0c-18.187,-0 -34.841,7.016 -47.266,18.55c-12.421,11.575 -20.608,27.666 -21.938,45.817l-227.662,24.033c-33.796,3.591 -60.013,31.054 -62.029,64.975l-9.196,157.929l-160.875,45.45c-33.475,9.442 -54.771,42.187 -49.888,76.588Z" style="fill:#cddae2;fill-rule:nonzero;"/><path d="M1398.22,1593.95c-0,-39.466 -28.896,-72.929 -67.942,-78.608l-31.85,-4.663l-53.5,-180.891c-9.967,-33.784 -40.987,-56.909 -76.158,-56.909l-547.192,0c-20.817,0 -39.883,8.03 -54.096,21.234c-14.216,13.245 -23.587,31.662 -25.112,52.433l-236.909,25.013l51.104,358.829l1047.66,-0l-6.004,-2.492l-0,-133.946Z" style="fill:#bcced8;fill-rule:nonzero;"/><rect x="500.963" y="412.996" width="406.479" height="379.388" style="fill:#0e2b46;fill-rule:nonzero;"/><rect x="500.963" y="412.996" width="406.479" height="40.121" style="fill:#2a4c68;fill-rule:nonzero;"/><path d="M819.575,433.508c-0,4.063 -3.292,7.359 -7.35,7.359c-4.067,-0 -7.358,-3.296 -7.358,-7.359c-0,-4.062 3.291,-7.354 7.358,-7.354c4.058,0 7.35,3.292 7.35,7.354Z" style="fill:#5e6ab1;fill-rule:nonzero;"/><path d="M850.288,433.508c-0,4.063 -3.292,7.359 -7.355,7.359c-4.062,-0 -7.354,-3.296 -7.354,-7.359c0,-4.062 3.292,-7.354 7.354,-7.354c4.063,0 7.355,3.292 7.355,7.354Z" style="fill:#fbd25a;fill-rule:nonzero;"/><path d="M878.804,434.283c0,4.063 -3.291,7.355 -7.354,7.355c-4.062,-0 -7.354,-3.292 -7.354,-7.355c-0,-4.062 3.292,-7.354 7.354,-7.354c4.063,0 7.354,3.292 7.354,7.354Z" style="fill:#f48479;fill-rule:nonzero;"/><rect x="573.242" y="490.417" width="57.571" height="4.837" style="fill:#f48479;fill-rule:nonzero;"/><rect x="640.812" y="490.417" width="57.571" height="4.837" style="fill:#fbd25a;fill-rule:nonzero;"/><rect x="591.05" y="516.483" width="89.271" height="4.838" style="fill:#5e6ab1;fill-rule:nonzero;"/><rect x="695.083" y="516.483" width="45.379" height="4.838" style="fill:#f48479;fill-rule:nonzero;"/><rect x="622.017" y="542.546" width="39.208" height="4.842" style="fill:#fbd25a;fill-rule:nonzero;"/><rect x="683.887" y="542.546" width="130.075" height="4.842" style="fill:#fbd25a;fill-rule:nonzero;"/><rect x="652.471" y="568.613" width="148.654" height="4.837" style="fill:#5e6ab1;fill-rule:nonzero;"/><rect x="615.304" y="594.679" width="45.75" height="4.838" style="fill:#f48479;fill-rule:nonzero;"/><rect x="680.629" y="594.679" width="45.75" height="4.838" style="fill:#5e6ab1;fill-rule:nonzero;"/><rect x="573.242" y="729.912" width="66.558" height="4.838" style="fill:#f48479;fill-rule:nonzero;"/><rect x="663.108" y="729.912" width="66.554" height="4.838" style="fill:#fbd25a;fill-rule:nonzero;"/><rect x="750.554" y="729.912" width="66.554" height="4.838" style="fill:#f48479;fill-rule:nonzero;"/><rect x="591.05" y="703.846" width="130.071" height="4.838" style="fill:#5e6ab1;fill-rule:nonzero;"/><rect x="741.404" y="703.846" width="130.067" height="4.838" style="fill:#f48479;fill-rule:nonzero;"/><rect x="622.017" y="677.779" width="129.075" height="4.838" style="fill:#f48479;fill-rule:nonzero;"/><rect x="762.346" y="677.779" width="35.925" height="4.838" style="fill:#fbd25a;fill-rule:nonzero;"/><rect x="613.588" y="651.713" width="48.592" height="4.837" style="fill:#fbd25a;fill-rule:nonzero;"/><rect x="687.983" y="651.713" width="48.592" height="4.837" style="fill:#5e6ab1;fill-rule:nonzero;"/><rect x="767.825" y="651.713" width="48.592" height="4.837" style="fill:#f48479;fill-rule:nonzero;"/><rect x="669.913" y="625.646" width="68.137" height="4.842" style="fill:#fbd25a;fill-rule:nonzero;"/><rect x="576.075" y="625.646" width="68.133" height="4.842" style="fill:#5e6ab1;fill-rule:nonzero;"/><rect x="535.563" y="485.767" width="6.192" height="6.196" style="fill:#fafdfe;fill-rule:nonzero;"/><path d="M541.754,523.542l-6.191,-0l-0,-12.63l6.191,0l0,12.63Zm0,31.579l-6.191,-0l-0,-12.629l6.191,-0l0,12.629Zm0,31.583l-6.191,0l-0,-12.633l6.191,-0l0,12.633Zm0,31.579l-6.191,0l-0,-12.633l6.191,-0l0,12.633Zm0,31.58l-6.191,-0l-0,-12.63l6.191,0l0,12.63Zm0,31.583l-6.191,-0l-0,-12.629l6.191,-0l0,12.629Zm0,31.579l-6.191,0l-0,-12.629l6.191,-0l0,12.629Z" style="fill:#fafdfe;fill-rule:nonzero;"/><rect x="535.563" y="731.975" width="6.192" height="6.196" style="fill:#fafdfe;fill-rule:nonzero;"/><rect x="994.9" y="332.396" width="334.708" height="206.313" style="fill:#f48479;fill-rule:nonzero;"/><path d="M1124.9,415.379l-39.825,16.996l39.825,16.746l-5.213,12.029l-47.758,-21.333l-0,-14.763l47.758,-21.458l5.213,11.783Z" style="fill:#fafdfe;fill-rule:nonzero;"/><path d="M1183.58,376.054l-28.904,111.025l-13.771,-3.225l29.03,-110.9l13.645,3.1Z" style="fill:#fafdfe;fill-rule:nonzero;"/><path d="M1252.69,425.054l-0,14.763l-47.759,21.333l-5.208,-12.029l39.696,-16.746l-39.696,-16.996l5.208,-11.783l47.759,21.458Z" style="fill:#fafdfe;fill-rule:nonzero;"/><rect x="1318.12" y="732.083" width="190.638" height="135.817" style="fill:#5e6ab1;fill-rule:nonzero;"/><path d="M1397.86,761.404c-6.129,0 -8.179,1.654 -8.179,6.229l0,20.442c0,7.983 -3.308,10.417 -8.858,11.975c5.55,1.458 8.858,3.892 8.858,11.775l0,20.442c0,4.575 2.146,6.229 8.179,6.229l0,8.958c-15.479,0 -19.858,-4.967 -19.858,-15.283l0,-19.371c0,-5.55 -1.458,-7.692 -6.521,-7.692l0,-10.22c5.063,-0 6.521,-2.238 6.521,-7.788l0,-19.371c0,-10.412 4.379,-15.279 19.858,-15.279l0,8.954Z" style="fill:#f3f4f5;fill-rule:nonzero;"/><path d="M1448.87,767.729l-0,19.371c-0,5.55 1.458,7.788 6.616,7.788l0,10.22c-5.158,0 -6.616,2.142 -6.616,7.692l-0,19.371c-0,10.316 -4.379,15.283 -19.854,15.283l-0,-8.958c6.033,-0 8.174,-1.654 8.174,-6.229l0,-20.442c0,-7.883 3.309,-10.317 8.859,-11.775c-5.55,-1.558 -8.859,-3.992 -8.859,-11.975l0,-20.442c0,-4.575 -2.041,-6.229 -8.174,-6.229l-0,-8.954c15.475,0 19.854,4.867 19.854,15.279Z" style="fill:#f3f4f5;fill-rule:nonzero;"/><rect x="371.596" y="361.983" width="213.875" height="143.05" style="fill:#fbd25a;fill-rule:nonzero;"/><path d="M487.433,442.425c-9.679,9.675 -25.425,9.675 -35.104,-0.004c-9.679,-9.679 -9.679,-25.421 0,-35.1c9.679,-9.675 25.425,-9.675 35.104,-0c9.679,9.679 9.679,25.425 0,35.104Zm-45.054,-39.375c-10.212,12.779 -10.054,31.45 0.35,44.075c11.821,14.342 32.071,16.654 46.621,6.954l22.45,22.446c0.946,0.946 2.479,0.946 3.429,-0l6.304,-6.308c0.95,-0.946 0.95,-2.484 0,-3.43l-22.446,-22.445c9.092,-13.634 7.634,-32.271 -4.383,-44.292c-14.625,-14.621 -39.041,-13.621 -52.325,3Z" style="fill:#fafdfe;fill-rule:nonzero;"/><path d="M1207.6,803.842c-0.462,4.725 -6.921,54.058 -57.65,54.058c-53.254,-0 -44.333,-52.729 -44.333,-52.729l-0.067,-0.329c5.192,-1.067 10.783,-1.467 16.708,-0.8l0,-24.963l60.451,-33.821l2.195,0l0,58.25c0,0 9.584,-1.133 22.696,0.334Z" style="fill:url(#_Radial1);"/><path d="M1178.25,633.821c8.575,8.692 15.054,19.937 18.171,33.683c5.808,25.608 0.345,52.704 -7.088,77.384c-1.266,4.224 -2.712,8.483 -5.321,12.037c-1.858,2.533 -4.254,4.621 -6.629,6.687c-10.75,9.363 -21.5,18.73 -32.225,28.121c-7.275,6.363 -52.037,11.667 -60.583,5.563c-32.921,-23.542 -39.259,-91.742 -32.671,-126.613c10.933,-57.841 85.279,-78.521 126.346,-36.862Z" style="fill:url(#_Radial2);"/><path d="M1159.76,707.842c0.438,-5.567 6.163,-11.663 11.909,-8.05c5.95,3.741 4.55,13.629 2.083,19.066c-1.933,4.271 -8.396,8.942 -12.779,4.975c-3.667,-3.329 2.033,-7.25 2.221,-10.287c0.171,-2.733 -5.296,-4.692 -3.059,-7.617" style="fill:#f7b094;fill-rule:nonzero;"/><path d="M1160.81,733.588c6,1.8 16.166,-2.776 18.737,-11.134c2.571,-8.358 2.296,-17.9 2.296,-17.9c-0,0 3.021,7.567 1.466,19.742c-1.554,12.171 -5.816,23.767 -15.37,23.921c-9.554,0.15 -7.129,-14.629 -7.129,-14.629Z" style="fill:#f7b094;fill-rule:nonzero;"/><path d="M1153.45,724.925l-0.671,0.2c-3.717,0.521 -5.2,-3.975 -5.75,-6.787c-1.287,-6.571 -1.087,-13.221 -1.312,-19.867c-0.054,-1.667 0.075,-3.746 -0.609,-5.313c-2.087,-4.779 -7.65,-7.883 -9.345,-12.82c-1.975,-5.742 3.599,-11.471 1.387,-17.755c-3.383,-9.629 -15.75,-11.841 -24.692,-11.737c-13.416,0.158 -26.5,2.646 -39.741,4.7c-13.979,2.171 -31.846,4.229 -44.163,-4.613c-14.85,-10.654 -21.05,-38.425 -9.971,-53.625c6.038,-8.291 17.492,-12.704 27.525,-12.933c10.638,-0.246 19.625,6.096 29.384,9.288c7.771,2.541 15.283,-4.892 22.55,-6.342c9.133,-1.825 13.008,8.142 21.087,8.412c7.846,0.267 15.542,-5.862 23.171,-7.254c15.213,-2.779 14.317,12.5 24.521,17.717c6.346,3.246 14.537,1.279 20.954,4.575c4.875,2.504 5.558,6.904 6.621,11.887c0.921,4.313 0.971,9.288 2.392,13.384c1.275,3.683 4.366,6.008 6.779,8.887c2.633,3.146 4.316,6.813 5.65,10.754c2.962,8.742 3.62,18.171 2.812,27.321c-1.354,15.358 -6.3,30.479 -11.429,44.946c-3.329,9.383 -4.567,19.158 -9.687,28.042c-1.375,2.387 -7.484,9.362 -9.755,4.166c-0.487,-1.112 -0.412,-2.379 -0.329,-3.591c0.679,-9.68 9.688,-72.029 -13.933,-64.542c-4.959,1.575 -8.284,5.7 -10.134,10.404c-2.208,5.633 -2.362,11.304 -2.083,17.254c0.042,0.85 0.063,1.704 0.029,2.555c-0.041,1.1 -0.316,2.216 -1.258,2.687Z" style="fill:#463c34;fill-rule:nonzero;"/><path d="M1122.26,798.329c26.859,-4.317 44.58,-25.533 44.58,-25.533c-0,-0 -7.242,35.754 -46.192,37.646l1.612,-12.113Z" style="fill:#f7b094;fill-rule:nonzero;"/><path d="M1166.35,1285.71l38.442,0l-0,368.859c-0,3.737 -3.034,6.775 -6.775,6.775l-24.892,-0c-3.746,-0 -6.775,-3.038 -6.775,-6.775l0,-368.859Z" style="fill:#0a2032;fill-rule:nonzero;"/><path d="M1079.85,1290.98l211.429,0l0,5.771c0,14.529 -11.779,26.309 -26.308,26.309l-158.808,-0c-14.529,-0 -26.313,-11.78 -26.313,-26.309l0,-5.771Z" style="fill:#2f475e;fill-rule:nonzero;"/><path d="M1166.35,1617.61l38.442,0l-0,85.471c-0,3.742 -3.034,6.775 -6.775,6.775l-24.892,0c-3.746,0 -6.775,-3.033 -6.775,-6.775l0,-85.471Z" style="fill:#0a2032;fill-rule:nonzero;"/><path d="M986.071,1687.35c-0,12.425 10.075,22.5 22.504,22.5c12.421,0 22.496,-10.075 22.496,-22.5c-0,-12.429 -10.075,-22.5 -22.496,-22.5c-12.429,0 -22.504,10.071 -22.504,22.5Z" style="fill:#0a2032;fill-rule:nonzero;"/><path d="M1340.07,1687.35c-0,12.425 10.075,22.5 22.504,22.5c12.425,0 22.5,-10.075 22.5,-22.5c-0,-12.429 -10.075,-22.5 -22.5,-22.5c-12.429,0 -22.504,10.071 -22.504,22.5Z" style="fill:#0a2032;fill-rule:nonzero;"/><rect x="1146.9" y="1588.96" width="77.342" height="67.583" style="fill:#2f475e;fill-rule:nonzero;"/><path d="M986.071,1672.45l399,-0l-0,-7.842c-0,-13.237 -10.729,-23.962 -23.967,-23.962l-351.071,-0c-13.233,-0 -23.962,10.725 -23.962,23.962l-0,7.842Z" style="fill:#fbd25a;fill-rule:nonzero;"/><rect x="1172.24" y="1330.64" width="13.333" height="252.283" style="fill:#2f475e;fill-rule:nonzero;"/><path d="M1336.61,1018.35c-9.225,-0.292 -16.725,7.346 -16.191,16.558c2.637,45.792 -7.067,157.5 -49.717,195.613c-52.15,46.604 -199.954,40.254 -199.954,40.254c-0,-0 -24.413,29.958 24.408,36.612c48.821,6.659 186.4,2.225 219.688,-28.841c32.216,-30.075 51.346,-108.863 36.929,-245.996c-0.825,-7.863 -7.254,-13.954 -15.163,-14.2Z" style="fill:#fbd25a;fill-rule:nonzero;"/><path d="M1059.68,1582.92l17.575,40.079l-53.854,23.634l-17.642,-40.209l53.921,-23.504Z" style="fill:url(#_Radial3);"/><path d="M1313.65,1137.5c-3.325,6.662 -242.616,0.133 -265.221,2.196c0,-0 -146.454,69.904 -167.491,135.341c-2.134,6.592 -2.73,15.313 -2.063,25.7c5.854,92.134 110.775,312.75 110.775,312.75l16.108,-7.054l53.921,-23.504l7.655,-3.325c-0,-0 -83.213,-247.979 -66.567,-261.292c16.642,-13.316 205.237,-46.6 270.675,-64.308c65.508,-17.779 42.208,-116.504 42.208,-116.504Z" style="fill:#08071a;fill-rule:nonzero;"/><path d="M854.367,1593.24l4.208,60.209l-58.787,-0l-4.209,-60.342l58.788,0.133Z" style="fill:url(#_Radial4);"/><path d="M1047.24,1137.63l-2.134,0.934c0,-0 -245.183,34.42 -285.121,103.187c-25.966,44.733 24.288,371.621 24.288,371.621l86.741,0.2c0,-0 -12.97,-272.3 -8.645,-287.475c4.862,-17.313 13.183,-23.571 16.512,-25.363c-0.667,-10.387 -0.071,-19.108 2.063,-25.7c21.037,-65.437 167.491,-135.341 167.491,-135.341c-0.462,-0.329 -0.866,-1.063 -1.195,-2.063Z" style="fill:#050515;fill-rule:nonzero;"/><path d="M1284.05,911.088l-16.442,2.262c0,0 -3.995,44.338 -13.783,88.675l-204.837,77.754l-2.8,14.846c-0.863,-0.067 -1.729,-0.133 -2.529,-0.2c0.066,3.063 0.066,6.058 0.199,8.854c0.467,17.113 1.596,29.425 3.396,34.35c0.334,1 0.734,1.734 1.2,2.063c5.563,4.537 78.013,-4.254 156.334,24.504c67.929,24.946 106.004,52.187 107.762,48.529c21.35,-44.383 -17.517,-218.554 -28.5,-301.637Z" style="fill:#f48479;fill-rule:nonzero;"/><path d="M1262.68,1012.68c-5.458,26.229 -19.571,78.421 -47.266,85.413c-36.15,9.187 -106.046,8.72 -171.555,5.191c-0.133,-2.796 -0.133,-5.791 -0.199,-8.854c0.8,0.067 1.666,0.133 2.529,0.2l2.8,-14.846l204.837,-77.754c9.788,-44.337 13.783,-88.675 13.783,-88.675c0,0 0,0.267 0.063,0.733c0.4,6.859 3.196,59.85 -4.992,98.592Z" style="fill:#f2675d;fill-rule:nonzero;"/><path d="M1057.36,845.65c-3.662,6.654 -8.925,77.887 -11.783,148.588l-41.875,-39.08c17.771,-34.416 53.658,-109.508 53.658,-109.508Z" style="fill:#f2675d;fill-rule:nonzero;"/><path d="M1032.26,1045.9c-35.35,6.121 -67.837,11.383 -67.837,11.383l-0.067,1.729c-39.341,-31.42 -99.191,-120.425 -99.191,-120.425c-0,0 17.908,-21.504 22.37,-27.162c0.663,-0.867 98.259,66.304 103.25,65.704c1.267,-0.129 6.259,-8.917 12.917,-21.967l41.875,39.08c-0.671,16.841 -1.204,33.616 -1.537,49.525c-3.926,0.733 -7.851,1.4 -11.78,2.133Z" style="fill:#f7b094;fill-rule:nonzero;"/><path d="M964.421,1057.28l-0.867,29.158l-106.517,0c0,0 10.588,-41.608 39.413,-41.608c28.825,0 39.942,15.246 39.942,15.246l28.029,-2.796Z" style="fill:url(#_Radial5);"/><path d="M886.729,910.754l0.804,0.667c-4.462,5.658 -22.37,27.162 -22.37,27.162l-11.117,-7.854c-0,0 -12.25,7.454 -26.496,-0.337c-14.846,-8.055 -5.658,-27.288 -4.896,-29.567c-2.879,0.813 -20.666,15.187 -23.462,13.658c-2.796,-1.533 -4.859,-6.591 15.041,-26.229c19.842,-19.637 46.867,5.592 47.667,5.592l24.829,16.908Z" style="fill:#f7b094;fill-rule:nonzero;"/><path d="M829.867,927.054c-0,0 -4.292,8.033 3.337,11.529c7.629,3.492 22.471,6.013 28.85,5.4c6.375,-0.616 11.446,-9.537 11.446,-9.537l-19.312,-18.121l-15.438,-0l-8.883,10.729Z" style="fill:#f7b094;fill-rule:nonzero;"/><path d="M828.725,931c1.142,-3.946 12.108,-1.842 18.904,-1.679c5.008,0.117 7.75,-1.196 9.296,-5.013c1.55,-3.812 -5.721,-9.891 -7.15,-7.983c-1.429,1.904 2.621,4.592 2.742,7.121c0.12,2.533 -7.15,3.371 -12.755,3.371c-5.604,-0 -15.27,1.458 -15.27,1.458l4.233,2.725Z" style="fill:#e9987c;fill-rule:nonzero;"/><path d="M1243.42,1039.84l-104.317,-36.951c-7.592,14.184 -15.712,24.834 -23.762,26.967c-12.184,3.192 -41.613,8.717 -71.304,13.909c-3.926,0.733 -7.851,1.4 -11.78,2.133c-35.35,6.121 -67.837,11.383 -67.837,11.383l-0.067,1.729l0,1.134l-0.8,26.295l0,6.676c0,-0 35.417,-1.813 80.088,1.312c62.512,4.458 143.129,7.125 169.82,-5.454c12.517,-5.929 22.505,-25.367 30.363,-49.333l-0.404,0.2Z" style="fill:url(#_Radial6);"/><path d="M1139.1,1002.89l104.317,36.951l-4.721,13.937l-103.246,-44.287l3.65,-6.601Z" style="fill:#f7b094;fill-rule:nonzero;"/><path d="M1139.1,1002.89c-7.592,14.184 -15.712,24.834 -23.762,26.967c-12.184,3.192 -41.613,8.717 -71.304,13.909c0.333,-15.909 0.866,-32.684 1.533,-49.525c2.862,-70.701 8.125,-141.934 11.787,-148.588c5.988,-11.121 22.367,-35.283 48.196,-40.808l0.067,0.329c-0,-0 -8.921,52.729 44.333,52.729c50.729,-0 57.188,-49.333 57.65,-54.058c26.1,2.929 66.109,15.975 71.633,68.433c1.134,10.387 2.73,23.7 4.792,38.813l-16.441,2.262c-0,0 -6.659,73.896 -23.763,126.288l-0.404,0.2l-104.317,-36.951Z" style="fill:#f48479;fill-rule:nonzero;"/><path d="M1149,997.35l-10.971,-4.075l41.654,-100.833l-30.683,104.908Z" style="fill:#f8a795;fill-rule:nonzero;"/><path d="M1207.6,803.842l-22.696,-0c0,-0 -32.308,35.47 -53.071,35.47c-20.77,0 -9.575,-35.27 -9.575,-35.27l-10.133,-0c-29.1,-0 -53.592,21.854 -56.887,50.77c-0.375,3.313 -0.721,6.455 -1.013,9.296c-2.225,21.459 84.704,37.075 84.704,37.075l44.759,-2.504l27.179,-53.029l5.416,-21.717l-8.683,-20.091Z" style="fill:#f48479;fill-rule:nonzero;"/><path d="M933.679,1692.77c2.021,10.841 9.542,18.554 20.388,16.529l144.587,-26.967c3.658,-0.683 6.067,-4.2 5.388,-7.858l-2.392,-12.829c-0,-0 -152.071,26.612 -168.046,31.041l0.075,0.084Z" style="fill:#f3f4f5;fill-rule:nonzero;"/><path d="M976.696,1656.36c1.508,-1.308 2.958,-2.608 4.467,-3.912c2.9,-2.596 5.754,-5.125 8.504,-7.571c1.446,-1.296 2.9,-2.596 4.241,-3.817c2.642,-2.362 5.129,-4.579 7.359,-6.57c1.6,-1.442 3.1,-2.809 4.446,-4.03c2.47,-2.216 4.487,-4.02 5.904,-5.291c1.225,-1.096 3.045,-1.146 4.3,-0.088c5.945,4.996 25.154,16.421 59.954,-5.108c1.646,-1.021 3.837,-0.488 4.733,1.233l21.046,40.438c-0,-0 -152.071,26.612 -168.046,31.041c5.254,-3.275 24.663,-20.07 43.092,-36.325Z" style="fill:#3b3e7b;fill-rule:nonzero;"/><path d="M705.967,1691.35c0.266,11.029 6.458,19.841 17.491,19.567l147.038,-3.588c3.721,-0.092 6.662,-3.179 6.571,-6.896l-0.321,-13.046c-0,0 -154.363,2.042 -170.838,3.871l0.059,0.092Z" style="fill:#f3f4f5;fill-rule:nonzero;"/><path d="M754.233,1662.26c1.7,-1.054 3.334,-2.1 5.034,-3.15c3.279,-2.104 6.496,-4.145 9.595,-6.12c1.642,-1.051 3.28,-2.101 4.805,-3.088c2.983,-1.917 5.787,-3.708 8.308,-5.317c1.812,-1.175 3.508,-2.287 5.029,-3.27c2.792,-1.796 5.075,-3.259 6.671,-4.284c1.383,-0.887 3.192,-0.65 4.267,0.596c5.071,5.879 22.216,20.221 59.995,4.508c1.792,-0.741 3.867,0.134 4.476,1.975l14.333,43.275c-0,0 -154.363,2.042 -170.838,3.871c5.705,-2.4 27.542,-15.887 48.325,-28.996Z" style="fill:#3b3e7b;fill-rule:nonzero;"/><path d="M601.371,1093.11l-78.529,-209.434l223.562,0l78.521,209.434l-223.554,-0Z" style="fill:#abb5bb;fill-rule:nonzero;"/><path d="M838.75,1093.11l-13.825,-0l-78.521,-209.434l12.546,0.559l72.633,189.57l7.167,19.305Z" style="fill:#8495a0;fill-rule:nonzero;"/><path d="M834.413,1093.11l147.72,-0l-0.404,-13.2l-150.341,-0" style="fill:#8495a0;fill-rule:nonzero;"/><rect x="1428.19" y="1133.05" width="35.567" height="584.304" style="fill:#8495a0;fill-rule:nonzero;"/><rect x="1235.13" y="1133.05" width="35.567" height="584.304" style="fill:#abb5bb;fill-rule:nonzero;"/><rect x="616.637" y="1133.05" width="35.563" height="584.304" style="fill:#8495a0;fill-rule:nonzero;"/><rect x="423.583" y="1133.05" width="35.567" height="584.304" style="fill:#abb5bb;fill-rule:nonzero;"/><path d="M1499.35,1135.27l-1109.84,-0c-9.545,-0 -17.283,-7.742 -17.283,-17.288l-0,-7.587c-0,-9.546 7.738,-17.283 17.283,-17.283l1109.84,-0c9.546,-0 17.283,7.737 17.283,17.283l0,7.587c0,9.546 -7.737,17.288 -17.283,17.288Z" style="fill:#202055;fill-rule:nonzero;"/><path d="M560.171,905.692l3.825,10.195l44.533,0l-3.825,-10.195l-44.533,-0Z" style="fill:#8495a0;fill-rule:nonzero;"/><path d="M1003.7,955.158l-3.2,6.175l45.075,46.579l0,-13.674l-41.875,-39.08Z" style="fill:#e9987c;fill-rule:nonzero;"/><rect x="123.933" y="1709.85" width="1799.65" height="41.096" style="fill:#a5b8c6;fill-rule:nonzero;"/><path d="M1638.26,1405.06c-7.146,34.688 -4.996,93.775 -50.884,103.134c-12.358,2.516 -24.296,-6.046 -31.479,-15.863c-9.4,-12.846 -11.65,-40.033 -11.488,-55.587c0.13,-12.325 4.334,-26.067 5.684,-38.504c1.466,-13.43 2.654,-26.888 4.221,-40.309c5.645,-48.366 30.912,-88.904 73.65,-113.05c3.308,15.879 10.846,29.317 17.496,44.563c3.033,6.95 5.766,14.279 7.741,21.562c3.492,12.896 -0.733,25.93 -3.871,38.284c-4.637,18.262 -7.262,37.296 -11.07,55.77Z" style="fill:#2b453a;"/><path d="M1579.61,1509.36c0.329,-2.908 0.688,-5.816 1.071,-8.725c5.483,-0.016 11.192,-3.133 15.792,-5.516c7.983,-4.138 14.458,-10.071 20.729,-16.413l-0.588,-0.587c-6.254,5.254 -12.737,10.342 -20.179,13.812c-4.154,1.934 -10.22,5.096 -15.337,5.713c0.483,-3.475 1.017,-6.938 1.592,-10.4c5.708,-0.7 10.941,-4.45 15.775,-7.317c8.216,-4.875 15.283,-11.183 22.608,-17.262l-0.104,-0.129c-11.205,8.137 -23.688,19.72 -37.867,22.258c0.754,-4.333 1.546,-8.659 2.458,-12.95l0.142,-0.671c16.408,-4.15 27.504,-17.017 40.067,-27.417l-0.23,-0.35c-12.37,9.609 -23.995,20.567 -39.287,25.234c1.329,-6.146 2.708,-12.271 4.096,-18.384c14.841,-5.479 26.696,-14.175 37.071,-26.287l-0.3,-0.292c-10.738,11.175 -22.563,17.592 -36.179,23.954c1.37,-6.054 2.733,-12.112 4.024,-18.187c6.421,-3.154 13.176,-5.075 19.105,-9.229c5.85,-4.096 11.1,-8.979 14.866,-15.075l-0.495,-0.317c-8.305,11.942 -20.826,15.658 -32.925,21.938c1.179,-5.663 2.279,-11.338 3.262,-17.046c13.483,-7.425 28.138,-14.309 35.779,-28.538l-0.208,-0.141c-8.096,13.075 -22.246,18.704 -35.092,25.82c0.167,-1.016 0.354,-2.025 0.513,-3.046c0.829,-5.291 1.6,-10.595 2.362,-15.891c7.746,-3.109 15.134,-7.488 22.104,-12.029c4.95,-3.225 10.234,-6.417 13.475,-11.475l-0.479,-0.338c-7.233,10.363 -23.075,16.354 -34.771,21.538c0.759,-5.354 1.513,-10.709 2.275,-16.067c12.98,-7.854 28.254,-12.196 36.242,-26.358c0.237,-0.417 -0.379,-0.804 -0.642,-0.396c-8.275,12.929 -22.837,16.916 -35.241,24.254c0.475,-3.317 0.958,-6.633 1.458,-9.946c14.021,-5.154 30.321,-16.891 37.712,-29.562c0.409,-0.7 -0.599,-1.346 -1.058,-0.679c-7.537,11.12 -22.687,23.208 -36.242,27.608c0.83,-5.371 1.696,-10.734 2.655,-16.088l0.204,-0.471c6.296,-1.854 12.516,-6.291 17.95,-9.645c6.55,-4.042 12.8,-8.734 16.879,-15.379c0.45,-0.734 -0.746,-1.413 -1.167,-0.659c-6.229,11.113 -21.004,18.563 -33.237,22.804c0.358,-1.954 0.712,-3.904 1.1,-5.854c0.575,-2.912 1.171,-5.829 1.762,-8.742c5.013,-3.458 11.371,-5.112 16.4,-8.766c4.371,-3.175 8.188,-7 11.934,-10.879c0.375,-0.38 -0.179,-0.975 -0.571,-0.605c-5.075,4.767 -10.296,9.346 -16.475,12.65c-3.454,1.85 -7.392,2.905 -10.738,4.934c0.98,-4.763 1.955,-9.525 2.888,-14.296l0.179,-0.038l0.179,0.038l0.821,-0.258c6.813,-1.717 12.021,-7.579 16.596,-12.575l-0.175,-0.18c-4.804,4.438 -10.263,9.355 -16.696,11.263l-0.062,-0.029l-0.488,-0.075c0.742,-3.883 1.45,-7.771 2.1,-11.667c0.492,-0.087 0.921,-0.508 0.804,-1c3.613,-2.421 6.892,-5.512 9.971,-8.533l-0.342,-0.371c-3.2,2.758 -6.358,5.033 -9.958,7.025c1.271,-8.046 2.258,-16.142 2.708,-24.312c0.042,-0.759 -1.104,-0.767 -1.171,-0.021c-0.712,7.866 -1.854,15.658 -3.212,23.412c-3.754,-4.929 -7.937,-10.004 -10.233,-15.646l-0.48,0.142c1.126,3.504 3.063,6.567 4.98,9.683c1.716,2.788 3.087,6.034 5.275,8.509c-0.759,4.162 -1.575,8.312 -2.434,12.462c-4.566,-0.733 -8.754,-1.6 -12.525,-4.908c-4.616,-4.046 -7.241,-9.55 -7.695,-15.654c-0.059,-0.75 -1.242,-0.746 -1.176,0.004c0.521,5.675 2.78,11.012 6.663,15.246c4.083,4.45 8.879,5.871 14.379,7.012c-1,4.788 -2.033,9.571 -3.087,14.35c-4.146,-2.487 -8,-5.737 -11.738,-8.721c-6.037,-4.808 -9.6,-10.595 -14.837,-16.012c-0.525,-0.538 -1.38,0.242 -0.863,0.796c4.909,5.216 8.229,10.866 13.808,15.554c4.021,3.375 8.459,7.608 13.255,10.104l-0.167,0.758l-0.158,0.134l-0.109,1.07c-1.008,4.576 -2.012,9.155 -2.979,13.746l-0.171,0.863c-10.675,-4.888 -26.625,-13.379 -28.041,-25.763c-0.134,-1.175 -1.892,-0.85 -1.617,0.355c3.154,14.016 18.558,20.229 29.171,27.87c-1.046,5.188 -2.008,10.388 -2.888,15.605c-6.895,-2.376 -13.45,-5.309 -19.237,-9.909c-5.267,-4.187 -12.713,-9.237 -15.083,-15.725l-0.305,0.133c2.192,6.446 8.875,10.88 13.738,15.28c6.167,5.579 12.479,10.316 20.412,12.55l-0.021,0.696c-0.545,3.308 -1.07,6.616 -1.575,9.933c-12.962,-0.996 -31.104,-10.842 -37.729,-20.646l-0.062,0.05c4.517,7.483 11.346,11.854 19.05,15.646c5.75,2.837 11.966,6.191 18.475,6.675c-0.929,6.133 -1.834,12.271 -2.746,18.408c-5.625,-2.096 -11.583,-3.1 -17.15,-5.325c-8.271,-3.312 -14.592,-9.262 -19.463,-16.575c-0.291,-0.442 -1.029,-0.066 -0.737,0.392c8.975,14.267 21.888,18.454 37.008,23.796c-0.754,5.033 -1.545,10.062 -2.375,15.087c-12.379,-2.371 -28.383,-9.929 -34.646,-20.679c-0.462,-0.788 -1.716,-0.133 -1.258,0.663c3.954,6.891 10.771,11.245 17.725,14.758c5.009,2.529 11.904,6.721 17.871,7.171l-0.083,0.491c-1.225,7.23 -2.65,14.425 -4.192,21.592c-13.829,-3.475 -22.767,-13.717 -32.817,-23.304c-0.696,-0.667 -1.791,0.35 -1.095,1.029c10.237,10.079 19.229,20.65 33.454,24.379c-1.275,5.829 -2.634,11.65 -4.042,17.45c-11.775,-3.292 -23.433,-11.65 -31.05,-21.25c-0.542,-0.683 -1.487,0.242 -0.975,0.917c7.917,10.416 19.333,18.279 31.483,22.583c-1.529,6.229 -3.112,12.442 -4.708,18.654c-12.1,-1.841 -21.421,-9.416 -28.871,-18.991l-0.4,0.3c6.621,9.212 16.634,19.85 28.684,20.966c-0.513,1.979 -1.021,3.963 -1.534,5.942c-0.308,1.192 -0.629,2.404 -0.962,3.629c-9.121,-2.683 -17.588,-5.958 -25.117,-12.108l-0.254,0.333c7.154,6.442 15.721,10.783 24.875,13.6c-1.017,3.729 -2.088,7.563 -3.15,11.471c-2.263,-1.054 -4.45,-2.208 -6.925,-2.95c-4.538,-1.358 -7.475,-4.237 -11.425,-6.608l-0.409,0.529c3.471,2.262 5.905,5.175 9.863,6.662c2.929,1.109 5.692,2.513 8.525,3.771c-4.158,15.5 -7.837,31.975 -5.846,46.85c0.446,3.3 5.979,4.175 6.838,0.663c2.625,-10.784 2.491,-22.304 3.716,-33.33Z" style="fill:#7279ba;fill-rule:nonzero;"/><path d="M1493.03,1395.13c8.163,34.467 35.05,87.121 -2.6,114.979c-10.137,7.5 -24.575,4.767 -35.233,-1.1c-13.942,-7.675 -27.458,-31.375 -33.871,-45.545c-5.087,-11.23 -7.075,-25.463 -11.096,-37.305c-4.346,-12.791 -8.946,-25.496 -13.191,-38.321c-15.296,-46.233 -9.496,-93.645 19.058,-133.575c9.696,13.001 22.208,22 34.671,33.013c5.675,5.021 11.25,10.517 16.112,16.283c8.613,10.221 10.284,23.817 12.65,36.342c3.504,18.517 9.159,36.879 13.5,55.229Z" style="fill:#2d453a;"/><path d="M1483.89,1514.45c-0.937,-2.775 -1.837,-5.567 -2.72,-8.367c4.971,-2.325 8.829,-7.558 11.991,-11.667c5.496,-7.12 8.855,-15.224 11.867,-23.629c0.158,-0.446 -0.583,-0.704 -0.779,-0.279c-3.454,7.4 -7.183,14.75 -12.471,21.042c-2.946,3.504 -7.112,8.925 -11.487,11.646c-1.034,-3.355 -2.009,-6.721 -2.946,-10.096c4.875,-3.046 8.037,-8.65 11.208,-13.296c5.392,-7.887 9.138,-16.587 13.213,-25.188l-0.146,-0.074c-6.729,12.104 -13.159,27.875 -24.938,36.158c-1.146,-4.246 -2.25,-8.5 -3.237,-12.775l-0.15,-0.671c13.116,-10.683 17.75,-27.033 24.745,-41.763l-0.358,-0.22c-7.154,13.929 -13.062,28.775 -24.962,39.454c-1.392,-6.129 -2.725,-12.263 -4.05,-18.392c11.15,-11.233 18.225,-24.121 22.516,-39.479l-0.395,-0.137c-5.017,14.662 -13.03,25.47 -22.688,36.987c-1.313,-6.071 -2.633,-12.133 -4.029,-18.188c4.491,-5.57 9.8,-10.162 13.429,-16.429c3.575,-6.179 6.271,-12.825 7.113,-19.941l-0.58,-0.08c-2.491,14.334 -12.271,22.984 -20.591,33.784c-1.325,-5.629 -2.725,-11.238 -4.238,-16.829c9.092,-12.425 19.471,-24.846 20.392,-40.971l-0.25,-0.038c-1.821,15.267 -12.271,26.342 -20.913,38.217c-0.279,-0.992 -0.533,-1.987 -0.821,-2.979c-1.483,-5.146 -3.02,-10.279 -4.574,-15.404c5.72,-6.088 10.566,-13.171 14.97,-20.234c3.125,-5.008 6.567,-10.137 7.371,-16.091l-0.579,-0.1c-2.179,12.446 -14.013,24.558 -22.433,34.2c-1.571,-5.179 -3.146,-10.35 -4.713,-15.525c8.45,-12.6 20.463,-22.988 21.729,-39.192c0.038,-0.483 -0.683,-0.571 -0.746,-0.092c-2.045,15.217 -13.566,24.975 -21.716,36.867c-0.971,-3.212 -1.929,-6.421 -2.875,-9.638c10.533,-10.587 20.358,-28.108 21.708,-42.716c0.079,-0.804 -1.112,-0.967 -1.241,-0.167c-2.142,13.263 -10.775,30.608 -21.201,40.321c-1.52,-5.217 -2.995,-10.446 -4.387,-15.696l-0.013,-0.521c4.925,-4.333 8.692,-10.987 12.205,-16.316c4.229,-6.429 7.916,-13.33 8.808,-21.067c0.096,-0.858 -1.271,-0.971 -1.333,-0.108c-0.959,12.704 -11.213,25.695 -20.513,34.704c-0.496,-1.921 -1.004,-3.842 -1.475,-5.771c-0.704,-2.888 -1.396,-5.779 -2.083,-8.671c3.079,-5.25 8.146,-9.433 11.162,-14.871c2.625,-4.721 4.471,-9.8 6.23,-14.896c0.175,-0.504 -0.575,-0.812 -0.78,-0.308c-2.587,6.471 -5.387,12.817 -9.587,18.421c-2.354,3.138 -5.479,5.754 -7.654,9.004c-1.125,-4.733 -2.25,-9.458 -3.421,-14.175l0.15,-0.112l0.175,-0.042l0.637,-0.579c5.45,-4.434 7.7,-11.946 9.738,-18.408l-0.233,-0.088c-2.484,6.054 -5.355,12.813 -10.38,17.254l-0.075,0.004l-0.475,0.138c-0.958,-3.833 -1.962,-7.658 -3.012,-11.463c0.404,-0.287 0.617,-0.85 0.304,-1.25c2.25,-3.716 3.921,-7.9 5.433,-11.941l-0.462,-0.196c-1.738,3.854 -3.642,7.25 -6.063,10.579c-2.245,-7.829 -4.766,-15.588 -7.808,-23.188c-0.279,-0.704 -1.321,-0.229 -1.071,0.476c2.675,7.433 4.929,14.979 6.975,22.579c-5.487,-2.879 -11.421,-5.717 -15.883,-9.863l-0.375,0.329c2.491,2.705 5.546,4.663 8.6,6.68c2.729,1.804 5.346,4.166 8.371,5.487c1.075,4.092 2.083,8.204 3.054,12.321c-4.446,1.262 -8.609,2.246 -13.425,0.837c-5.892,-1.721 -10.596,-5.6 -13.583,-10.941c-0.371,-0.654 -1.442,-0.155 -1.063,0.496c2.867,4.929 7.171,8.82 12.475,11.016c5.583,2.313 10.529,1.575 15.996,0.283c1.112,4.767 2.192,9.534 3.258,14.313c-4.812,-0.5 -9.679,-1.825 -14.325,-2.946c-7.5,-1.816 -13.171,-5.558 -20.208,-8.258c-0.704,-0.267 -1.15,0.804 -0.446,1.083c6.65,2.663 12.042,6.379 19.087,8.279c5.071,1.359 10.876,3.321 16.276,3.563l0.166,0.758l-0.083,0.192c-0.183,0.479 0.025,0.833 0.354,1.012c1.017,4.571 2.037,9.15 3.1,13.717l0.204,0.854c-11.737,0.075 -29.779,-0.887 -36.287,-11.521c-0.621,-1.008 -2.075,0.03 -1.321,1.009c8.779,11.37 25.362,10.5 38.204,12.95c1.246,5.145 2.567,10.266 3.971,15.366c-7.25,0.759 -14.434,0.867 -21.621,-0.866c-6.542,-1.571 -15.421,-3.005 -20.308,-7.884l-0.225,0.246c4.712,4.921 12.637,6.117 18.9,8.054c7.95,2.459 15.675,4.088 23.808,2.763l0.275,0.641c0.904,3.23 1.825,6.451 2.762,9.671c-12.17,4.563 -32.77,3.296 -42.912,-2.795l-0.037,0.07c7.249,4.875 15.291,5.959 23.87,6.15c6.413,0.142 13.463,0.559 19.571,-1.75c1.742,5.955 3.517,11.896 5.275,17.846c-5.979,0.475 -11.808,2.079 -17.791,2.408c-8.901,0.488 -17.138,-2.237 -24.638,-6.812c-0.454,-0.275 -0.967,0.371 -0.508,0.671c14.158,9.146 27.625,7.487 43.591,5.95c1.442,4.883 2.855,9.775 4.217,14.679c-12.221,3.075 -29.921,2.983 -40.137,-4.125c-0.75,-0.521 -1.609,0.608 -0.863,1.138c6.5,4.574 14.517,5.645 22.3,5.895c5.608,0.179 13.629,1.071 19.225,-1.041l0.137,0.479c1.942,7.071 3.684,14.196 5.309,21.346c-14.004,2.687 -26.429,-2.825 -39.583,-7.28c-0.917,-0.308 -1.48,1.075 -0.559,1.4c13.533,4.813 26.146,10.605 40.617,7.975c1.308,5.83 2.533,11.675 3.704,17.53c-12.067,1.983 -26.162,-0.671 -37.117,-6.159c-0.779,-0.391 -1.25,0.85 -0.5,1.246c11.575,6.096 25.238,8.409 38.071,7.183c1.246,6.292 2.433,12.596 3.604,18.896c-11.745,3.438 -23.391,0.505 -34.187,-5.029l-0.229,0.442c9.887,5.554 23.454,10.971 34.845,6.896c0.375,2.012 0.746,4.025 1.117,6.037c0.225,1.213 0.446,2.45 0.663,3.696c-9.404,1.417 -18.463,2.021 -27.884,-0.375l-0.087,0.408c9.204,2.821 18.8,3.142 28.291,1.83c0.651,3.808 1.296,7.741 1.984,11.729c-2.492,-0 -4.967,-0.125 -7.521,0.245c-4.688,0.684 -8.567,-0.683 -13.154,-1.166c-0.417,-0.046 -0.571,0.591 -0.142,0.65c4.1,0.592 7.538,2.204 11.758,1.883c3.121,-0.233 6.217,-0.125 9.313,-0.183c2.771,15.804 6.388,32.291 14.479,44.942c1.792,2.8 7.179,1.258 6.471,-2.284c-2.167,-10.887 -7.154,-21.275 -10.688,-31.783Z" style="fill:#7279ba;fill-rule:nonzero;"/><path d="M1572.57,1368.42c1.937,43.791 22.437,114.029 -29.783,139.17c-14.067,6.771 -30.984,0.113 -42.58,-9.487c-15.175,-12.562 -26.12,-44.504 -30.637,-63.212c-3.579,-14.83 -2.704,-32.592 -4.85,-47.921c-2.317,-16.559 -4.971,-33.067 -7.163,-49.646c-7.887,-59.742 10.138,-116.042 54.096,-157.967c8.779,18.046 21.908,31.884 34.5,48.163c5.746,7.416 11.246,15.383 15.825,23.52c8.104,14.417 6.983,31.338 6.963,47.109c-0.025,23.317 2.596,46.954 3.629,70.271Z" style="fill:#254e40;"/><path d="M1533.82,1511.35c-0.492,-3.592 -0.942,-7.192 -1.367,-10.796c6.579,-1.679 12.484,-7.15 17.284,-11.404c8.324,-7.388 14.287,-16.467 19.891,-25.979c0.296,-0.509 -0.546,-0.992 -0.883,-0.525c-5.913,8.2 -12.15,16.27 -20.029,22.691c-4.392,3.58 -10.713,9.209 -16.667,11.496c-0.475,-4.312 -0.887,-8.629 -1.242,-12.954c6.634,-2.567 11.775,-8.654 16.705,-13.563c8.379,-8.341 14.949,-18.054 21.891,-27.562l-0.162,-0.129c-10.979,13.162 -22.446,30.846 -38.68,38.187c-0.416,-5.425 -0.77,-10.854 -0.979,-16.283l-0.029,-0.85c18.425,-9.95 27.834,-28.754 39.754,-45.037l-0.383,-0.35c-11.929,15.274 -22.55,31.954 -39.483,42.183c-0.271,-7.775 -0.475,-15.542 -0.663,-23.3c16.15,-11.067 27.733,-25.1 36.509,-42.779l-0.446,-0.259c-9.496,16.667 -21.738,27.95 -36.146,39.709c-0.188,-7.684 -0.392,-15.359 -0.684,-23.034c6.746,-5.737 14.263,-10.091 20.126,-16.871c5.774,-6.687 10.595,-14.141 13.262,-22.595c0.146,-0.442 -0.525,-0.663 -0.687,-0.229c-6.342,16.841 -20.242,25.1 -32.855,36.3c-0.304,-7.146 -0.704,-14.292 -1.254,-21.438c13.929,-12.996 29.421,-25.696 34.275,-45.087l-0.292,-0.105c-5.749,18.142 -21.02,29.184 -34.274,41.621c-0.105,-1.271 -0.188,-2.541 -0.309,-3.817c-0.612,-6.6 -1.292,-13.195 -1.987,-19.787c8.358,-6.075 15.887,-13.567 22.879,-21.129c4.958,-5.367 10.333,-10.804 12.687,-17.854c0.146,-0.446 -0.512,-0.696 -0.679,-0.259c-5.533,14.625 -22.725,26.617 -35.191,36.384c-0.709,-6.659 -1.43,-13.313 -2.138,-19.963c13.192,-13.362 30.2,-23.208 35.492,-42.617c0.154,-0.575 -0.7,-0.854 -0.892,-0.279c-6.004,18.017 -22.271,27.221 -34.933,39.788c-0.434,-4.129 -0.854,-8.254 -1.259,-12.383c15.255,-10.43 31.254,-29.455 36.284,-46.901c0.275,-0.958 -1.134,-1.433 -1.48,-0.491c-5.67,15.629 -20.179,34.716 -35.108,44.108c-0.637,-6.696 -1.221,-13.392 -1.7,-20.1l0.109,-0.637c6.991,-4.13 13.108,-11.338 18.612,-17.009c6.633,-6.833 12.708,-14.366 15.588,-23.571c0.316,-1.016 -1.326,-1.466 -1.6,-0.437c-4.101,15.221 -19.571,28.637 -32.967,37.442c-0.159,-2.454 -0.329,-4.904 -0.454,-7.363c-0.192,-3.671 -0.363,-7.346 -0.53,-11.021c4.959,-5.671 12.088,-9.583 17.017,-15.491c4.279,-5.134 7.7,-10.88 11.021,-16.667c0.329,-0.575 -0.513,-1.121 -0.875,-0.558c-4.642,7.262 -9.517,14.337 -15.925,20.179c-3.583,3.262 -7.992,5.725 -11.392,9.166c-0.266,-6.008 -0.541,-12.02 -0.871,-18.02l0.201,-0.1l0.229,-0.013c0.437,-0.025 0.729,-0.254 0.908,-0.554c7.65,-4.125 12.125,-12.746 16.1,-20.125l-0.262,-0.158c-4.421,6.783 -9.476,14.329 -16.617,18.571l-0.088,-0.013l-0.612,0.058c-0.279,-4.883 -0.608,-9.762 -1.013,-14.633c0.567,-0.258 0.954,-0.892 0.663,-1.446c3.6,-4.004 6.6,-8.704 9.375,-13.262l-0.521,-0.346c-3,4.283 -6.104,7.971 -9.817,11.458c-0.916,-10.046 -2.187,-20.054 -4.125,-30c-0.179,-0.916 -1.554,-0.579 -1.408,0.329c1.529,9.663 2.517,19.355 3.246,29.067c-6,-4.775 -12.558,-9.596 -17.025,-15.671l-0.534,0.313c2.409,3.866 5.667,6.954 8.909,10.112c2.904,2.825 5.537,6.304 8.912,8.613c0.354,5.221 0.63,10.45 0.863,15.683c-5.708,0.504 -10.992,0.738 -16.521,-2.088c-6.763,-3.454 -11.587,-9.262 -13.983,-16.449c-0.296,-0.88 -1.717,-0.517 -1.405,0.362c2.346,6.654 6.676,12.379 12.617,16.275c6.254,4.104 12.434,4.354 19.379,4.054c0.25,6.046 0.459,12.096 0.646,18.15c-5.733,-1.725 -11.342,-4.458 -16.729,-6.9c-8.7,-3.941 -14.729,-9.804 -22.658,-14.712c-0.792,-0.492 -1.584,0.708 -0.792,1.212c7.471,4.771 13.162,10.546 21.288,14.475c5.845,2.834 12.45,6.567 18.958,8.108l0.033,0.955l-0.15,0.212c-0.333,0.542 -0.158,1.025 0.196,1.313c0.175,5.8 0.358,11.604 0.592,17.395l0.058,1.088c-14.292,-2.625 -36.004,-7.975 -41.45,-22.404c-0.521,-1.371 -2.533,-0.446 -1.842,0.917c8.038,15.858 28.405,18.637 43.45,24.591c0.317,6.538 0.742,13.075 1.271,19.6c-8.996,-0.754 -17.75,-2.291 -26.087,-6.058c-7.588,-3.425 -18.054,-7.225 -22.867,-14.292l-0.329,0.25c4.592,7.071 13.95,10.363 21.116,14.163c9.096,4.833 18.105,8.604 28.301,8.875l0.187,0.841c0.354,4.138 0.725,8.267 1.117,12.396c-15.85,2.733 -40.6,-3.575 -51.521,-13.333l-0.067,0.079c7.692,7.608 17.213,10.783 27.6,13c7.767,1.658 16.242,3.8 24.196,2.404c0.742,7.642 1.521,15.283 2.287,22.925c-7.387,-0.812 -14.837,-0.212 -22.187,-1.2c-10.933,-1.462 -20.317,-6.683 -28.383,-13.983c-0.484,-0.438 -1.254,0.229 -0.767,0.696c15.096,14.395 31.85,15.504 51.617,17.329c0.625,6.271 1.204,12.546 1.729,18.825c-15.571,0.908 -37.071,-3.304 -47.842,-14.308c-0.792,-0.805 -2.1,0.362 -1.312,1.179c6.841,7.066 16.337,10.229 25.746,12.329c6.774,1.521 16.32,4.458 23.612,3.187l0.054,0.617c0.725,9.046 1.192,18.108 1.513,27.179c-17.642,0.021 -31.475,-9.562 -46.438,-18.017c-1.037,-0.587 -2.046,0.963 -1.004,1.575c15.342,8.984 29.333,18.942 47.537,19.1c0.234,7.384 0.371,14.776 0.438,22.167c-15.125,-0.383 -31.65,-6.871 -43.696,-16.083c-0.854,-0.654 -1.712,0.741 -0.891,1.4c12.658,10.092 28.733,16.067 44.62,17.546c0.054,7.941 0.042,15.875 0.005,23.808c-15.076,1.458 -28.555,-4.804 -40.396,-14.029l-0.388,0.479c10.733,9.046 25.975,18.771 40.771,16.458c-0.013,2.529 -0.025,5.063 -0.042,7.596c-0.008,1.525 -0.029,3.079 -0.054,4.646c-11.758,-0.454 -22.912,-1.817 -33.808,-6.913l-0.204,0.475c10.541,5.559 22.137,8.171 33.975,8.78c-0.092,4.779 -0.213,9.708 -0.3,14.712c-3.034,-0.579 -6.017,-1.3 -9.209,-1.437c-5.858,-0.254 -10.254,-2.817 -15.712,-4.467c-0.5,-0.15 -0.833,0.583 -0.325,0.758c4.846,1.667 8.65,4.421 13.85,5.013c3.854,0.433 7.592,1.283 11.371,1.929c-0.296,19.862 0.291,40.742 7.195,57.988c1.53,3.825 8.434,3.195 8.401,-1.275c-0.121,-13.734 -3.78,-27.521 -5.642,-41.117Z" style="fill:#7289ba;fill-rule:nonzero;"/><path d="M1601.4,1527.75l-1.933,35.596l-3.026,55.429l-4.958,91.071l-123.3,-0l-4.954,-91.071l-3.029,-55.429l-1.933,-35.596l143.133,0Z" style="fill:#94a7b4;fill-rule:nonzero;"/><path d="M1599.46,1563.35l-0.401,7.137l-0.391,7.388l-2.234,40.904l-133.212,-0l-2.233,-40.904l-0.396,-7.388l-0.4,-7.137l139.267,-0Z" style="fill:#a5b8c6;fill-rule:nonzero;"/><path d="M1599.06,1570.48l-0.391,7.388l-137.679,-0l-0.396,-7.388l138.466,0Z" style="fill:#94a7b4;fill-rule:nonzero;"/></g><defs><radialGradient id="_Radial1" cx="0" cy="0" r="1" gradientUnits="userSpaceOnUse" gradientTransform="matrix(53.8563,0,0,53.8563,1156.33,801.579)"><stop offset="0" style="stop-color:#fbc7b0;stop-opacity:1"/><stop offset="1" style="stop-color:#fab99c;stop-opacity:1"/></radialGradient><radialGradient id="_Radial2" cx="0" cy="0" r="1" gradientUnits="userSpaceOnUse" gradientTransform="matrix(83.0046,-17.8728,17.8728,83.0046,1125.18,704.096)"><stop offset="0" style="stop-color:#fbc7b0;stop-opacity:1"/><stop offset="1" style="stop-color:#fab99c;stop-opacity:1"/></radialGradient><radialGradient id="_Radial3" cx="0" cy="0" r="1" gradientUnits="userSpaceOnUse" gradientTransform="matrix(33.8578,0,0,33.8578,1041.51,1614.78)"><stop offset="0" style="stop-color:#fbc7b0;stop-opacity:1"/><stop offset="1" style="stop-color:#fab99c;stop-opacity:1"/></radialGradient><radialGradient id="_Radial4" cx="0" cy="0" r="1" gradientUnits="userSpaceOnUse" gradientTransform="matrix(30.8397,0,0,30.8397,827.079,1623.28)"><stop offset="0" style="stop-color:#fbc7b0;stop-opacity:1"/><stop offset="1" style="stop-color:#fab99c;stop-opacity:1"/></radialGradient><radialGradient id="_Radial5" cx="0" cy="0" r="1" gradientUnits="userSpaceOnUse" gradientTransform="matrix(170.501,27.374,-27.374,170.501,1014.84,1044.57)"><stop offset="0" style="stop-color:#fbc7b0;stop-opacity:1"/><stop offset="1" style="stop-color:#fab99c;stop-opacity:1"/></radialGradient><radialGradient id="_Radial6" cx="0" cy="0" r="1" gradientUnits="userSpaceOnUse" gradientTransform="matrix(170.5,27.3738,-27.3738,170.5,1014.84,1044.57)"><stop offset="0" style="stop-color:#fbc7b0;stop-opacity:1"/><stop offset="1" style="stop-color:#fab99c;stop-opacity:1"/></radialGradient></defs></svg>